<svg width="28" height="28" viewBox="0 0 24 24" fill="none" xmlns="http://www.w3.org/2000/svg">
    <path fill="currentColor" d="M12.04 2C6.58 2 2.13 6.45 2.13 11.91C2.13 13.66 2.59 15.36 3.45 16.86L2.05 22L7.3 20.62C8.75 21.41 10.38 21.83 12.04 21.83C17.5 21.83 21.96 17.38 21.96 11.92C21.95 6.46 17.5 2 12.04 2Z" />
    <path fill="white" d="M12.04 2C6.58 2 2.13 6.45 2.13 11.91C2.13 13.66 2.59 15.36 3.45 16.86L2.05 22L7.3 20.62C8.75 21.41 10.38 21.83 12.04 21.83C17.5 21.83 21.96 17.38 21.96 11.92C21.95 6.46 17.5 2 12.04 2Z" />
    <path fill="currentColor" d="M16.5 14.28C16.22 14.14 14.78 13.44 14.53 13.34C14.28 13.24 14.09 13.19 13.9 13.47C13.71 13.75 13.15 14.41 12.99 14.6C12.83 14.79 12.67 14.82 12.39 14.68C12.11 14.54 11.13 14.2 10.03 13.23C9.17 12.49 8.58 11.58 8.41 11.3C8.24 11.02 8.39 10.87 8.54 10.73C8.67 10.6 8.84 10.37 8.99 10.2C9.14 10.03 9.19 9.91 9.29 9.72C9.39 9.53 9.34 9.37 9.26 9.23C9.18 9.09 8.6 7.64 8.34 7.07C8.09 6.51 7.83 6.6 7.64 6.6C7.46 6.6 7.25 6.6 7.04 6.6C6.83 6.6 6.49 6.67 6.2 7C5.91 7.33 5.08 8.11 5.08 9.71C5.08 11.31 6.25 12.86 6.4 13.07C6.55 13.28 8.58 16.42 11.73 17.8C12.69 18.21 13.44 18.46 14.03 18.64C14.99 18.93 15.86 18.88 16.55 18.76C17.32 18.63 18.95 18 19.22 17.3C19.49 16.6 19.49 16 19.42 15.84C19.35 15.68 19.18 15.58 18.93 15.48C18.68 15.38 16.78 14.42 16.5 14.28Z" />
</svg>